<svg xmlns="http://www.w3.org/2000/svg" viewBox="0 0 64 64" width="64" height="64" class="way-icon" focusable="false"><path d="M26 12h12l-2.5-5.5a3.5 3.5 0 0 0-7 0z" fill="#ffc53d"></path><rect x="22" y="12" width="20" height="9" rx="3" fill="#ff5c9a"></rect><rect x="21" y="20" width="22" height="38" rx="8" fill="#b9d8ff"></rect><rect x="34" y="20" width="9" height="38" rx="6" fill="#97c3ff"></rect><path d="M21 31h7M21 38h9M21 45h7" stroke="#ffffff" stroke-width="2.4" stroke-linecap="round"></path><path d="M52 15.5c-2-3.6-7-2.3-7 1.3 0 3.3 7 7.5 7 7.5s7-4.2 7-7.5c0-3.6-5-4.9-7-1.3z" fill="#ff6b5b"></path></svg>